<svg t="1623854637875" class="icon" viewBox="0 0 1024 1024" version="1.1" xmlns="http://www.w3.org/2000/svg" p-id="1584" width="200" height="200"><path d="M149.333333 202.666667c0-29.44 23.893333-53.333333 53.333334-53.333334h618.538666c29.44 0 53.333333 23.893333 53.333334 53.333334v443.178666c0 29.44-23.893333 53.333333-53.333334 53.333334H202.666667c-29.44 0-53.333333-23.893333-53.333334-53.333334V202.666667zM202.666667 85.333333A117.333333 117.333333 0 0 0 85.333333 202.666667v443.178666a117.333333 117.333333 0 0 0 117.333334 117.333334h618.538666a117.333333 117.333333 0 0 0 117.333334-117.333334V202.666667A117.333333 117.333333 0 0 0 821.205333 85.333333H202.666667z m341.290666 207.36a32 32 0 0 0-64 0v350.762667a32 32 0 1 0 64 0v-350.72z m219.221334 87.722667a32 32 0 1 0-64 0v263.04a32 32 0 0 0 64 0V380.416zM324.693333 468.053333a32 32 0 0 0-64 0v175.36a32 32 0 0 0 64 0v-175.36z m-207.36 406.442667a32 32 0 0 0 0 64h789.205334a32 32 0 0 0 0-64H117.333333z" p-id="1585"></path></svg>