<svg t="1623855833542" class="icon" viewBox="0 0 1024 1024" version="1.1" xmlns="http://www.w3.org/2000/svg" p-id="2039" width="200" height="200"><path d="M85.333333 194.474667A109.141333 109.141333 0 0 1 194.474667 85.333333h635.050666A109.141333 109.141333 0 0 1 938.666667 194.474667v635.050666A109.141333 109.141333 0 0 1 829.525333 938.666667H194.474667A109.141333 109.141333 0 0 1 85.333333 829.525333V194.474667z m109.141334-49.621334c-27.392 0-49.621333 22.229333-49.621334 49.621334v635.050666c0 27.392 22.229333 49.621333 49.621334 49.621334h635.050666c27.392 0 49.621333-22.186667 49.621334-49.621334V194.474667c0-27.392-22.186667-49.621333-49.621334-49.621334H194.474667zM512 283.776c16.426667 0 29.781333 13.354667 29.781333 29.781333v367.104h59.52V392.96a29.781333 29.781333 0 0 1 59.52 0v287.786667h89.301334a29.781333 29.781333 0 1 1 0 59.52H273.92a29.781333 29.781333 0 1 1 0-59.562667h89.301333V512a29.781333 29.781333 0 0 1 59.52 0v168.704h59.52V313.514667c0-16.426667 13.354667-29.781333 29.781334-29.781334z" p-id="2040"></path></svg>