<svg t="1623855804185" class="icon" viewBox="0 0 1024 1024" version="1.1" xmlns="http://www.w3.org/2000/svg" p-id="1886" width="200" height="200"><path d="M418.048 95.744a428.032 428.032 0 0 1 188.245333 0 29.738667 29.738667 0 0 1 21.162667 39.936 89.344 89.344 0 0 0 152.917333 88.362667 29.781333 29.781333 0 0 1 45.141334-1.621334 426.24 426.24 0 0 1 94.208 162.986667 29.738667 29.738667 0 0 1-24.021334 38.272 89.344 89.344 0 0 0 0 176.64 29.781333 29.781333 0 0 1 24.021334 38.272 426.24 426.24 0 0 1-94.208 162.986667 29.781333 29.781333 0 0 1-45.141334-1.621334 89.344 89.344 0 0 0-152.917333 88.32 29.738667 29.738667 0 0 1-21.162667 39.978667c-30.293333 6.826667-61.824 10.410667-94.122666 10.410667-32.341333 0-63.829333-3.584-94.122667-10.410667a29.781333 29.781333 0 0 1-21.162667-39.936 89.344 89.344 0 0 0-152.917333-88.405333 29.781333 29.781333 0 0 1-45.141333 1.706666 426.24 426.24 0 0 1-94.250667-163.029333 29.781333 29.781333 0 0 1 24.064-38.272 89.344 89.344 0 0 0 0-176.64 29.781333 29.781333 0 0 1-24.064-38.272 426.24 426.24 0 0 1 94.250667-162.986667 29.781333 29.781333 0 0 1 45.141333 1.621334 89.344 89.344 0 0 0 152.917333-88.32 29.781333 29.781333 0 0 1 21.162667-39.978667z m43.178667 52.608a148.864 148.864 0 0 1-238.506667 137.770667 366.72 366.72 0 0 0-50.986667 88.149333 148.864 148.864 0 0 1 0 275.456c12.885333 31.872 30.122667 61.482667 50.986667 88.149333a148.864 148.864 0 0 1 238.506667 137.770667 370.261333 370.261333 0 0 0 101.845333 0 148.864 148.864 0 0 1 238.506667-137.770667 366.72 366.72 0 0 0 51.029333-88.149333 148.864 148.864 0 0 1 0-275.456 366.762667 366.762667 0 0 0-51.029333-88.149333 148.864 148.864 0 0 1-238.506667-137.770667 370.645333 370.645333 0 0 0-101.845333 0z m50.944 274.346667a89.301333 89.301333 0 1 0 0 178.602666 89.301333 89.301333 0 0 0 0-178.602666zM363.306667 512a148.821333 148.821333 0 1 1 297.685333 0 148.821333 148.821333 0 0 1-297.685333 0z" p-id="1887"></path></svg>