<svg t="1623854571332" class="icon" viewBox="0 0 1024 1024" version="1.1" xmlns="http://www.w3.org/2000/svg" p-id="1282" width="200" height="200"><path d="M85.333333 194.474667A109.141333 109.141333 0 0 1 194.474667 85.333333h635.050666A109.141333 109.141333 0 0 1 938.666667 194.474667v635.050666A109.141333 109.141333 0 0 1 829.525333 938.666667H194.474667A109.141333 109.141333 0 0 1 85.333333 829.525333V194.474667z m109.141334-49.621334c-27.392 0-49.621333 22.229333-49.621334 49.621334v635.050666c0 27.392 22.229333 49.621333 49.621334 49.621334h635.050666c27.392 0 49.621333-22.186667 49.621334-49.621334V194.474667c0-27.392-22.186667-49.621333-49.621334-49.621334H194.474667z m576.725333 147.626667a29.781333 29.781333 0 0 1 0 42.112l-238.165333 238.165333a29.738667 29.738667 0 0 1-45.824-4.565333l-59.221334-88.832-133.12 133.077333a29.781333 29.781333 0 1 1-42.069333-42.112l158.762667-158.72a29.781333 29.781333 0 0 1 45.824 4.522667l59.221333 88.832 212.48-212.48a29.781333 29.781333 0 0 1 42.112 0zM244.053333 710.485333c0-16.426667 13.312-29.738667 29.781334-29.738666H750.08a29.781333 29.781333 0 1 1 0 59.52H273.92a29.781333 29.781333 0 0 1-29.781333-29.781334z" p-id="1283"></path></svg>