<svg t="1623854788221" class="icon" viewBox="0 0 1024 1024" version="1.1" xmlns="http://www.w3.org/2000/svg" p-id="1735" width="200" height="200"><path d="M334.976 324.693333a176.896 176.896 0 1 1 353.834667 0 176.896 176.896 0 0 1-353.834667 0zM511.914667 85.333333a239.36 239.36 0 0 0-132.693334 438.570667 405.76 405.76 0 0 0-263.210666 294.101333C100.394667 887.168 159.786667 938.666667 220.586667 938.666667h582.741333c60.757333 0 120.106667-51.498667 104.533333-120.661334a405.845333 405.845333 0 0 0-263.210666-294.101333A239.36 239.36 0 0 0 511.914667 85.333333zM269.056 664.618667a343.424 343.424 0 0 1 577.834667 167.125333c4.608 20.48-12.373333 44.501333-43.605334 44.501333H220.501333c-31.189333 0-48.213333-23.978667-43.562666-44.501333a343.424 343.424 0 0 1 92.16-167.125333z" p-id="1736"></path></svg>